<svg width="76" height="32" viewBox="0 0 76 32" fill="none" xmlns="http://www.w3.org/2000/svg">
<path d="M13.0327 9.9841C13.0327 10.1975 12.7736 10.4719 12.2553 10.8072C11.7523 11.1273 11.0816 11.4932 10.2433 11.9047C9.42015 12.3163 8.52081 12.7583 7.54526 13.2309C6.56971 13.6881 5.61703 14.1607 4.68721 14.6484C5.4646 15.2277 6.26485 15.7688 7.08797 16.2718C7.92634 16.7596 8.69611 17.2169 9.39728 17.6437C10.0985 18.0552 10.6624 18.4211 11.0893 18.7412C11.5313 19.046 11.7523 19.2975 11.7523 19.4957C11.7523 19.6939 11.6761 19.8768 11.5237 20.0445C11.3865 20.1969 11.1655 20.2731 10.8606 20.2731C10.7387 20.2731 10.4719 20.1816 10.0604 19.9987C9.64879 19.8158 9.14577 19.5643 8.5513 19.2442C7.95682 18.9089 7.309 18.5354 6.60782 18.1238C5.92189 17.7123 5.23596 17.2855 4.55002 16.8434C3.86409 16.3861 3.23151 15.9365 2.65227 15.4944C2.45412 15.3572 2.31693 15.2201 2.24071 15.0829C2.1645 14.9304 2.12639 14.7933 2.12639 14.6713C2.12639 14.2902 2.37028 13.9549 2.85805 13.6653C3.54399 13.2537 4.27565 12.8422 5.05304 12.4306C5.84567 12.019 6.63069 11.6303 7.40808 11.2645C8.18547 10.8987 8.91713 10.571 9.60306 10.2813C10.289 9.99172 10.8682 9.7707 11.3408 9.61827C11.8285 9.4506 12.1639 9.36676 12.3468 9.36676C12.8041 9.36676 13.0327 9.57254 13.0327 9.9841Z" fill="#AAAAAA"/>
<path d="M36.3759 20.2276L44.6097 28.4613" stroke="#222222" stroke-width="4.08293" stroke-miterlimit="10" stroke-linecap="round" stroke-linejoin="round"/>
<circle cx="29.6986" cy="13.5502" r="9.79904" fill="#97CBFF"/>
<path d="M29.3171 22.7989C34.6356 22.7989 38.9472 18.4873 38.9472 13.1688C38.9472 7.85021 34.6356 3.53867 29.3171 3.53867C23.9985 3.53867 19.687 7.85021 19.687 13.1688C19.687 18.4873 23.9985 22.7989 29.3171 22.7989Z" stroke="#222222" stroke-width="3.26635" stroke-miterlimit="10"/>
<path d="M49.8454 27.7955C49.6015 27.7955 49.411 27.6964 49.2738 27.4983C49.1366 27.3001 49.068 26.9724 49.068 26.5151C49.068 26.3627 49.19 25.9892 49.4338 25.3947C49.6777 24.8003 50.0131 24.0457 50.4399 23.1312C50.8819 22.2013 51.3773 21.1648 51.9261 20.0216C52.4901 18.8784 53.0845 17.697 53.7095 16.4776C54.3345 15.2429 54.967 14.0159 55.6072 12.7964C56.2474 11.577 56.8648 10.4261 57.4593 9.3439C58.0537 8.2464 58.5949 7.2861 59.0826 6.46298C59.296 6.14288 59.479 5.94472 59.6314 5.8685C59.7991 5.77705 59.9972 5.73132 60.2259 5.73132C60.4545 5.73132 60.6298 5.8304 60.7517 6.02856C60.8889 6.21147 60.9575 6.43249 60.9575 6.69162C60.9575 6.82881 60.8127 7.21751 60.5231 7.85771C60.2335 8.48267 59.8372 9.30579 59.3341 10.3271C58.8311 11.3331 58.2443 12.4839 57.5736 13.7796C56.9181 15.06 56.2093 16.4319 55.4472 17.8952C54.7003 19.3433 53.9381 20.8295 53.1608 22.3538C52.3834 23.8628 51.6288 25.3566 50.8972 26.8352C50.7295 27.1858 50.5694 27.4297 50.417 27.5669C50.2646 27.7193 50.0741 27.7955 49.8454 27.7955ZM73.2597 15.4716C72.5585 15.9289 71.804 16.3861 70.9961 16.8434C70.1882 17.3007 69.3727 17.7351 68.5496 18.1467C67.7417 18.5583 66.9872 18.9241 66.286 19.2442C65.5848 19.5643 64.9904 19.8158 64.5026 19.9987C64.0148 20.1816 63.6947 20.2731 63.5423 20.2731C63.2527 20.2731 63.0545 20.2274 62.9478 20.1359C62.8411 20.0445 62.7877 19.8996 62.7877 19.7015C62.7877 19.4576 63.0469 19.1527 63.5651 18.7869C64.0986 18.4058 64.7846 17.9867 65.6229 17.5294C66.4765 17.0721 67.3987 16.5919 68.3895 16.0889C69.3803 15.5706 70.3483 15.0448 71.2933 14.5113C70.5159 13.993 69.7233 13.5052 68.9154 13.0479C68.1228 12.5906 67.3835 12.1791 66.6976 11.8133C66.0269 11.4322 65.4858 11.1045 65.0742 10.8301C64.6626 10.5405 64.4569 10.3042 64.4569 10.1213C64.4569 9.61827 64.7388 9.36676 65.3028 9.36676C65.44 9.36676 65.7906 9.49633 66.3546 9.75546C66.9338 9.99934 67.6274 10.3347 68.4353 10.7615C69.2431 11.1731 70.0739 11.6303 70.9275 12.1334C71.7963 12.6364 72.589 13.1394 73.3054 13.6424C73.5188 13.7948 73.6712 13.9473 73.7627 14.0997C73.8541 14.2521 73.8999 14.3969 73.8999 14.5341C73.8999 14.8695 73.6865 15.1819 73.2597 15.4716Z" fill="#AAAAAA"/>
</svg>
