<svg width="203" height="32" viewBox="0 0 203 32" fill="none" xmlns="http://www.w3.org/2000/svg">
<path d="M13.7536 9.9841C13.7536 10.1975 13.4945 10.4719 12.9762 10.8072C12.4732 11.1273 11.8025 11.4932 10.9642 11.9047C10.141 12.3163 9.24171 12.7583 8.26616 13.2309C7.29061 13.6881 6.33792 14.1607 5.4081 14.6484C6.18549 15.2277 6.98575 15.7688 7.80887 16.2718C8.64723 16.7596 9.417 17.2169 10.1182 17.6437C10.8194 18.0552 11.3833 18.4211 11.8101 18.7412C12.2522 19.046 12.4732 19.2975 12.4732 19.4957C12.4732 19.6939 12.397 19.8768 12.2446 20.0445C12.1074 20.1969 11.8864 20.2731 11.5815 20.2731C11.4596 20.2731 11.1928 20.1816 10.7812 19.9987C10.3697 19.8158 9.86667 19.5643 9.27219 19.2442C8.67772 18.9089 8.02989 18.5354 7.32872 18.1238C6.64278 17.7123 5.95685 17.2855 5.27092 16.8434C4.58498 16.3861 3.9524 15.9365 3.37317 15.4944C3.17501 15.3572 3.03782 15.2201 2.96161 15.0829C2.88539 14.9304 2.84729 14.7933 2.84729 14.6713C2.84729 14.2902 3.09117 13.9549 3.57895 13.6653C4.26488 13.2537 4.99654 12.8422 5.77393 12.4306C6.56657 12.019 7.35158 11.6303 8.12897 11.2645C8.90636 10.8987 9.63802 10.571 10.324 10.2813C11.0099 9.99172 11.5891 9.7707 12.0617 9.61827C12.5494 9.4506 12.8848 9.36676 13.0677 9.36676C13.525 9.36676 13.7536 9.57254 13.7536 9.9841Z" fill="#AAAAAA"/>
<path d="M28.3421 6.20845C29.457 6.20845 30.4151 6.35653 31.2164 6.65268C32.0178 6.9314 32.8017 7.36692 33.5682 7.95922L32.2878 9.44867C31.2252 8.56022 29.9622 8.116 28.4988 8.116C26.8787 8.116 25.5548 8.7083 24.527 9.89289C23.5166 11.0601 23.0114 12.9241 23.0114 15.4849C23.0114 18.0283 23.5079 19.8923 24.5008 21.0769C25.4938 22.2615 26.8178 22.8538 28.4727 22.8538C29.3786 22.8538 30.1538 22.7231 30.7984 22.4618C31.4429 22.2005 32.0613 21.8347 32.6536 21.3643L33.8295 22.8276C32.4881 24.1342 30.6938 24.7874 28.4466 24.7874C26.9658 24.7874 25.6332 24.4303 24.4486 23.7161C23.264 22.9844 22.332 21.9218 21.6526 20.5281C20.9732 19.1345 20.6335 17.4534 20.6335 15.4849C20.6335 13.5338 20.9732 11.8614 21.6526 10.4678C22.3494 9.05671 23.2814 7.99406 24.4486 7.27981C25.6332 6.56557 26.931 6.20845 28.3421 6.20845ZM49.1058 15.511C49.1058 18.3157 48.531 20.563 47.3812 22.2528C46.2489 23.9425 44.62 24.7874 42.4947 24.7874C40.352 24.7874 38.7145 23.96 37.5822 22.305C36.4498 20.6501 35.8837 18.3941 35.8837 15.5371C35.8837 13.708 36.1362 12.0879 36.6414 10.6768C37.1466 9.26575 37.8957 8.16826 38.8887 7.38434C39.8817 6.60041 41.0837 6.20845 42.4947 6.20845C44.62 6.20845 46.2489 7.05335 47.3812 8.74314C48.531 10.4155 49.1058 12.6715 49.1058 15.511ZM46.7541 15.511C46.7541 13.0547 46.4144 11.2081 45.735 9.97128C45.0556 8.73443 43.9755 8.116 42.4947 8.116C41.014 8.116 39.9339 8.74314 39.2545 9.99742C38.5751 11.2343 38.2354 13.0808 38.2354 15.5371C38.2354 17.976 38.5751 19.8139 39.2545 21.0507C39.9513 22.2702 41.0314 22.8799 42.4947 22.8799C43.9755 22.8799 45.0556 22.2702 45.735 21.0507C46.4144 19.8139 46.7541 17.9673 46.7541 15.511ZM64.7741 15.4065C64.7741 18.8209 63.9902 21.1901 62.4223 22.5141C60.8545 23.838 58.9208 24.5 56.6213 24.5H52.4926V6.49589H56.3338C58.8598 6.49589 60.898 7.13174 62.4484 8.40344C63.9989 9.67514 64.7741 12.0095 64.7741 15.4065ZM62.3439 15.4065C62.3439 13.4554 62.0739 11.9659 61.5339 10.9381C61.0113 9.89289 60.358 9.20478 59.5741 8.87379C58.7901 8.52538 57.893 8.35118 56.8826 8.35118H54.766V22.6708H56.9087C58.4592 22.6708 59.7483 22.1395 60.7761 21.0769C61.8213 19.9968 62.3439 18.1067 62.3439 15.4065ZM71.5318 14.4396H78.2212V16.2949H71.5318V22.6708H79.7368V24.5H69.2845V6.49589H79.5016L79.2403 8.37731H71.5318V14.4396Z" fill="#222222"/>
<path d="M100.097 20.2276L108.331 28.4613" stroke="#222222" stroke-width="4.08293" stroke-miterlimit="10" stroke-linecap="round" stroke-linejoin="round"/>
<circle cx="93.4195" cy="13.5502" r="9.79904" fill="#97CBFF"/>
<path d="M93.038 22.7988C98.3565 22.7988 102.668 18.4873 102.668 13.1688C102.668 7.8502 98.3565 3.53866 93.038 3.53866C87.7194 3.53866 83.4079 7.8502 83.4079 13.1688C83.4079 18.4873 87.7194 22.7988 93.038 22.7988Z" stroke="#222222" stroke-width="3.26635" stroke-miterlimit="10"/>
<path d="M123.548 18.6728C123.548 19.8749 123.296 20.9462 122.79 21.8869C122.303 22.8102 121.606 23.5245 120.7 24.0296C119.812 24.5348 118.766 24.7874 117.564 24.7874C116.345 24.7874 115.291 24.5348 114.402 24.0296C113.514 23.507 112.826 22.7841 112.338 21.8608C111.868 20.9375 111.633 19.8749 111.633 18.6728V6.49589H113.906V18.7512C113.906 20.11 114.22 21.1291 114.847 21.8085C115.474 22.4879 116.38 22.8276 117.564 22.8276C118.749 22.8276 119.655 22.4879 120.282 21.8085C120.926 21.1291 121.249 20.11 121.249 18.7512V6.49589H123.548V18.6728ZM130.959 14.4396H137.649V16.2949H130.959V22.6708H139.164V24.5H128.712V6.49589H138.929L138.668 8.37731H130.959V14.4396ZM155.12 11.5653C155.12 12.8544 154.719 13.9257 153.918 14.7793C153.117 15.6155 152.054 16.1991 150.73 16.5301L156.087 24.5H153.369L148.43 16.7914H146V24.5H143.753V6.49589H148.352C150.582 6.49589 152.263 6.92269 153.395 7.7763C154.545 8.6299 155.12 9.89289 155.12 11.5653ZM152.716 11.5653C152.716 10.4155 152.385 9.58803 151.723 9.08284C151.061 8.57764 150.024 8.32505 148.613 8.32505H146V15.0145H148.64C149.981 15.0145 150.991 14.7445 151.671 14.2045C152.368 13.647 152.716 12.7673 152.716 11.5653ZM165.745 24.5H163.445V17.5753L157.357 6.49589H159.866L164.647 15.5371L169.482 6.49589H171.833L165.745 17.5492V24.5Z" fill="#222222"/>
<path d="M176.566 27.7955C176.322 27.7955 176.132 27.6964 175.995 27.4983C175.857 27.3001 175.789 26.9724 175.789 26.5151C175.789 26.3627 175.911 25.9892 176.155 25.3947C176.399 24.8003 176.734 24.0457 177.161 23.1312C177.603 22.2013 178.098 21.1648 178.647 20.0216C179.211 18.8784 179.805 17.697 180.43 16.4776C181.055 15.2429 181.688 14.0159 182.328 12.7964C182.968 11.577 183.586 10.4261 184.18 9.3439C184.775 8.2464 185.316 7.2861 185.803 6.46298C186.017 6.14288 186.2 5.94472 186.352 5.8685C186.52 5.77705 186.718 5.73132 186.947 5.73132C187.175 5.73132 187.351 5.8304 187.473 6.02856C187.61 6.21147 187.678 6.43249 187.678 6.69162C187.678 6.82881 187.534 7.21751 187.244 7.85771C186.954 8.48267 186.558 9.30579 186.055 10.3271C185.552 11.3331 184.965 12.4839 184.294 13.7796C183.639 15.06 182.93 16.4319 182.168 17.8952C181.421 19.3433 180.659 20.8295 179.882 22.3538C179.104 23.8628 178.35 25.3566 177.618 26.8352C177.45 27.1858 177.29 27.4297 177.138 27.5669C176.985 27.7193 176.795 27.7955 176.566 27.7955ZM199.981 15.4716C199.279 15.9289 198.525 16.3861 197.717 16.8434C196.909 17.3007 196.094 17.7351 195.27 18.1467C194.463 18.5583 193.708 18.9241 193.007 19.2442C192.306 19.5643 191.711 19.8158 191.223 19.9987C190.736 20.1816 190.416 20.2731 190.263 20.2731C189.974 20.2731 189.775 20.2274 189.669 20.1359C189.562 20.0445 189.509 19.8996 189.509 19.7015C189.509 19.4576 189.768 19.1527 190.286 18.7869C190.819 18.4058 191.505 17.9867 192.344 17.5294C193.197 17.0721 194.12 16.5919 195.11 16.0889C196.101 15.5706 197.069 15.0448 198.014 14.5113C197.237 13.993 196.444 13.5052 195.636 13.0479C194.844 12.5906 194.104 12.1791 193.418 11.8133C192.748 11.4322 192.207 11.1045 191.795 10.8301C191.383 10.5405 191.178 10.3042 191.178 10.1213C191.178 9.61827 191.46 9.36676 192.024 9.36676C192.161 9.36676 192.511 9.49633 193.075 9.75546C193.655 9.99934 194.348 10.3347 195.156 10.7615C195.964 11.1731 196.795 11.6303 197.648 12.1334C198.517 12.6364 199.31 13.1394 200.026 13.6424C200.24 13.7948 200.392 13.9473 200.484 14.0997C200.575 14.2521 200.621 14.3969 200.621 14.5341C200.621 14.8695 200.407 15.1819 199.981 15.4716Z" fill="#AAAAAA"/>
</svg>
